<?xml version="1.0" encoding="UTF-8" standalone="no" ?>
<!DOCTYPE svg PUBLIC "-//W3C//DTD SVG 1.1//EN" "http://www.w3.org/Graphics/SVG/1.1/DTD/svg11.dtd">
<svg xmlns="http://www.w3.org/2000/svg" xmlns:xlink="http://www.w3.org/1999/xlink" version="1.1" width="1280" height="1024" viewBox="320 420 650 200" xml:space="preserve">
<desc>Created with Fabric.js 5.3.0</desc>
<defs>
</defs>
<g transform="matrix(1 0 0 1 640 512)" id="background-logo"  >
<rect style="stroke: none; stroke-width: 0; stroke-dasharray: none; stroke-linecap: butt; stroke-dashoffset: 0; stroke-linejoin: miter; stroke-miterlimit: 4; fill: rgb(18,25,27); fill-rule: nonzero; opacity: 1;"  paint-order="stroke"  x="-640" y="-512" rx="0" ry="0" width="1280" height="1024" />
</g>
<g transform="matrix(1.9211538461538462 0 0 1.9211538461538462 639.999954503925 522.4928556153848)" id="text-logo"  >
<g style=""  paint-order="stroke"   >
		<g transform="matrix(1 0 0 1 5.684342e-14 0)" id="text-logo-path-0"  >
<linearGradient id="SVGID_340943" gradientUnits="userSpaceOnUse" gradientTransform="matrix(1 0 0 1 2.9099999999999966 -67.9)"  x1="185.46402590179437" y1="-17.376580000000047" x2="185.46402590179443" y2="92.23341999999995">
<stop offset="0%" style="stop-color:rgb(10,85,78);stop-opacity: 1"/>
<stop offset="100%" style="stop-color:rgb(62,201,168);stop-opacity: 1"/>
</linearGradient>
<path style="stroke: rgb(255,255,255); stroke-width: 0; stroke-dasharray: none; stroke-linecap: butt; stroke-dashoffset: 0; stroke-linejoin: miter; stroke-miterlimit: 4; fill: url(#SVGID_340943); fill-rule: nonzero; opacity: 1;"  paint-order="stroke"  transform=" translate(-160.14499999999998, 25.415000000000006)" d="M 2.91 0 L 23.09 0 C 41.81 0 57.04 -15.23 57.04 -33.95 C 57.04 -52.67 41.81 -67.9 23.09 -67.9 L 2.91 -67.9 Z M 18.62 -2.72 L 10.09 -2.72 L 10.09 -65.18 L 18.62 -65.18 C 35.89 -65.18 49.86 -51.22 49.86 -33.95 C 49.86 -16.68 35.89 -2.72 18.62 -2.72 Z M 99.33 -67.9 L 75.08 -67.9 L 75.08 0 L 82.26 0 L 82.26 -20.47 L 90.89 -20.47 C 95.35 -19.89 99.23 -17.75 102.63 -15.04 C 108.06 -10.67 112.42 -5.14 117.76 0 C 123 5.04 128.33 10.48 135.51 14.16 C 139 15.91 143.07 17.07 147.15 17.07 C 151.32 17.07 155.2 15.81 158.5 13.87 L 157.43 11.35 C 155.01 12.03 152.58 12.42 150.25 12.42 C 142.49 12.42 135.99 7.47 130.47 2.43 C 127.85 0 125.32 -2.52 122.8 -5.14 C 116.89 -11.25 109.22 -17.46 101.17 -20.56 C 113.39 -21.53 123 -31.72 123 -44.23 C 123 -57.33 112.42 -67.9 99.33 -67.9 Z M 94.77 -23.18 L 82.26 -23.18 L 82.26 -65.18 L 94.77 -65.18 C 106.41 -65.18 115.82 -55.77 115.82 -44.23 C 115.82 -32.59 106.41 -23.18 94.77 -23.18 Z M 145.31 0 L 148.02 0 L 155.1 -23.47 L 179.55 -23.47 L 186.73 0 L 193.9 0 L 173.15 -67.9 L 165.97 -67.9 Z M 178.77 -26.09 L 155.98 -26.09 L 167.33 -63.44 Z M 211.95 0 L 219.12 0 L 219.12 -20.47 L 236.2 -20.47 C 249.29 -20.47 259.86 -31.14 259.86 -44.23 C 259.86 -57.33 249.29 -67.9 236.2 -67.9 L 211.95 -67.9 Z M 231.64 -23.18 L 219.12 -23.18 L 219.12 -65.18 L 231.64 -65.18 C 243.28 -65.18 252.69 -55.77 252.69 -44.23 C 252.69 -32.59 243.28 -23.18 231.64 -23.18 Z M 285.08 -2.72 L 285.08 -32.59 L 310.4 -32.59 L 310.4 -35.31 L 285.08 -35.31 L 285.08 -65.18 L 317.38 -65.18 L 317.38 -67.9 L 277.91 -67.9 L 277.91 0 L 317.38 0 L 317.38 -2.72 Z" stroke-linecap="round" />
</g>
</g>
</g>
</svg>